<svg width="24" height="24" viewBox="0 0 24 24" fill="none" xmlns="http://www.w3.org/2000/svg">
<path d="M21.8381 8.44476C21.8371 8.44376 21.8381 8.44376 21.8381 8.44476C21.8361 8.44376 21.8361 8.44276 21.8351 8.44076C21.8341 8.44076 21.8341 8.43976 21.8341 8.43976C21.7711 8.34676 21.6891 8.26776 21.5991 8.21076L12.4351 2.13076C12.1801 1.95576 11.7911 1.95576 11.5371 2.13076L2.37115 8.21376C2.27815 8.27076 2.19615 8.35076 2.13315 8.44476C2.04015 8.58476 1.99715 8.74176 2.00015 8.89676V15.0568C1.99715 15.2098 2.04015 15.3658 2.13115 15.5048C2.13215 15.5058 2.13215 15.5068 2.13315 15.5078C2.13615 15.5138 2.14015 15.5178 2.14315 15.5228V15.5248C2.14415 15.5248 2.14415 15.5248 2.14415 15.5248C2.14515 15.5248 2.14515 15.5248 2.14515 15.5258C2.14615 15.5258 2.14615 15.5268 2.14615 15.5268C2.20915 15.6148 2.28615 15.6868 2.37215 15.7418L11.5371 21.8238C11.6651 21.9118 11.8191 21.9628 11.9851 21.9628C12.1541 21.9628 12.3081 21.9118 12.4351 21.8238L21.6001 15.7418C21.6911 15.6838 21.7721 15.6078 21.8351 15.5128C21.9291 15.3718 21.9741 15.2128 21.9711 15.0568V8.89676C21.9741 8.74176 21.9301 8.58476 21.8381 8.44476ZM12.7811 4.27276L19.7341 8.88576L16.5511 10.9978L12.7801 8.46176V4.27276H12.7811ZM11.1891 4.27276V8.46176L7.41815 10.9978L4.23715 8.88676L11.1891 4.27276ZM3.59415 10.3708L5.98915 11.9608L3.59415 13.5718V10.3708ZM11.1891 19.6818L4.22915 15.0648L7.42415 12.9148L11.1891 15.4128V19.6818ZM11.9841 14.0288L8.85615 11.9508L11.9841 9.84576L15.1151 11.9508L11.9841 14.0288ZM12.7811 19.6818V15.4118L16.5471 12.9138L19.7401 15.0638L12.7811 19.6818ZM20.3781 13.5718L17.9821 11.9608L20.3781 10.3708V13.5718Z" fill="#9CA3AF"/>
</svg>
